<svg width="25" height="23" viewBox="0 0 25 23" fill="none" xmlns="http://www.w3.org/2000/svg">
<path d="M9.3754 10.8566C6.50357 10.8566 4.16711 8.52031 4.16711 5.64848C4.16711 2.77664 6.50357 0.440186 9.3754 0.440186C12.2472 0.440186 14.5837 2.77664 14.5837 5.64848C14.5837 8.52031 12.2472 10.8566 9.3754 10.8566ZM9.3754 2.00265C7.3651 2.00265 5.72958 3.63798 5.72958 5.64848C5.72958 7.65878 7.3651 9.29411 9.3754 9.29411C11.3857 9.29411 13.0212 7.65878 13.0212 5.64848C13.0212 3.63798 11.3857 2.00265 9.3754 2.00265Z" fill="white"/>
<path d="M17.9684 22.3147H0.781234C0.349991 22.3147 0 21.9648 0 21.5335V17.8877C0 15.1597 2.21973 12.9399 4.94775 12.9399H13.8019C16.5299 12.9399 18.7496 15.1597 18.7496 17.8877V21.5335C18.7496 21.9648 18.3996 22.3147 17.9684 22.3147ZM1.56247 20.7523H17.1871V17.8877C17.1871 16.0212 15.6684 14.5024 13.8019 14.5024H4.94775C3.08126 14.5024 1.56247 16.0212 1.56247 17.8877V20.7523Z" fill="white"/>
<path d="M24.218 11.1172H15.3641C14.9329 11.1172 14.5829 10.7672 14.5829 10.3359C14.5829 9.90468 14.9329 9.55469 15.3641 9.55469H24.218C24.6493 9.55469 24.9993 9.90468 24.9993 10.3359C24.9993 10.7672 24.6493 11.1172 24.218 11.1172Z" fill="white"/>
<path d="M20.0514 15.2836C19.8514 15.2836 19.6515 15.2075 19.4993 15.0546C19.1941 14.7492 19.1941 14.2545 19.4993 13.9493L23.1138 10.3347L19.4993 6.7202C19.1941 6.41503 19.1941 5.92028 19.4993 5.61511C19.8044 5.30994 20.2992 5.30994 20.6045 5.61511L24.7711 9.78162C25.0762 10.0868 25.0762 10.5817 24.7711 10.8869L20.6045 15.0534C20.4514 15.2075 20.2513 15.2836 20.0514 15.2836Z" fill="white"/>
</svg>
