<svg width="25" height="22" viewBox="0 0 25 22" fill="none" xmlns="http://www.w3.org/2000/svg">
<path d="M9.37626 10.4164C6.50442 10.4164 4.16797 8.08012 4.16797 5.20829C4.16797 2.33645 6.50442 0 9.37626 0C12.2481 0 14.5845 2.33645 14.5845 5.20829C14.5845 8.08012 12.2481 10.4164 9.37626 10.4164ZM9.37626 1.56247C7.36595 1.56247 5.73044 3.19779 5.73044 5.20829C5.73044 7.21859 7.36595 8.85392 9.37626 8.85392C11.3866 8.85392 13.0221 7.21859 13.0221 5.20829C13.0221 3.19779 11.3866 1.56247 9.37626 1.56247Z" fill="#024093"/>
<path d="M17.9684 21.8746H0.781234C0.349991 21.8746 0 21.5246 0 21.0933V17.4475C0 14.7195 2.21973 12.4998 4.94775 12.4998H13.8019C16.5299 12.4998 18.7496 14.7195 18.7496 17.4475V21.0933C18.7496 21.5246 18.3996 21.8746 17.9684 21.8746ZM1.56247 20.3121H17.1871V17.4475C17.1871 15.581 15.6684 14.0622 13.8019 14.0622H4.94775C3.08126 14.0622 1.56247 15.581 1.56247 17.4475V20.3121Z" fill="#024093"/>
<path d="M24.2172 10.677H15.3633C14.932 10.677 14.582 10.327 14.582 9.89574C14.582 9.46449 14.932 9.1145 15.3633 9.1145H24.2172C24.6484 9.1145 24.9984 9.46449 24.9984 9.89574C24.9984 10.327 24.6484 10.677 24.2172 10.677Z" fill="#024093"/>
<path d="M20.0506 14.8435C19.8505 14.8435 19.6506 14.7674 19.4984 14.6144C19.1932 14.309 19.1932 13.8143 19.4984 13.5091L23.113 9.89456L19.4984 6.28002C19.1932 5.97485 19.1932 5.48009 19.4984 5.17492C19.8036 4.86975 20.2983 4.86975 20.6037 5.17492L24.7702 9.34144C25.0754 9.64661 25.0754 10.1416 24.7702 10.4467L20.6037 14.6132C20.4505 14.7674 20.2505 14.8435 20.0506 14.8435Z" fill="#024093"/>
</svg>
