<svg width="22" height="22" viewBox="0 0 22 22" fill="none" xmlns="http://www.w3.org/2000/svg">
<path fill-rule="evenodd" clip-rule="evenodd" d="M13.4088 6.89014V7.749C14.239 7.23423 15.1974 6.93419 16.6536 6.93419C21.3932 6.93419 22 10.4701 22 13.5504V21.9518L16.5199 22V13.9647C16.5199 12.6159 16.0358 12.3599 15.1409 12.3599C14.29 12.3599 13.7619 12.6283 13.7619 13.9647V22L8.21001 21.9518V6.89013L13.4088 6.89014ZM5.51599 6.88106V21.9937H0V6.88107H5.51599V6.88106ZM4.13699 8.25744H1.379V20.6173H4.13699V8.25745V8.25744ZM12.0298 8.26651H9.58901V20.5878L12.3829 20.6126V13.9647C12.3829 11.3702 14.1107 10.9835 15.1409 10.9835C16.3985 10.9835 17.8989 11.501 17.8989 13.9647V20.6126L20.621 20.5878V13.5504C20.621 9.73098 19.5468 8.31056 16.6536 8.31056C14.9147 8.31056 14.1618 8.82532 13.424 9.4447L13.2323 9.6071H12.0298V8.26651ZM2.758 0C4.27904 0 5.51599 1.23461 5.51599 2.75275C5.51599 4.2709 4.27904 5.5055 2.758 5.5055C1.23697 5.5055 0 4.2709 0 2.75275C0 1.23461 1.23697 0 2.758 0ZM2.758 1.37638C1.99817 1.37638 1.379 1.99437 1.379 2.75275C1.379 3.51113 1.99817 4.12912 2.758 4.12912C3.51782 4.12912 4.13699 3.51113 4.13699 2.75275C4.13699 1.99437 3.51782 1.37638 2.758 1.37638Z" fill="#3C3D3E"/>
</svg>
