<svg width="55" height="44" viewBox="0 0 55 44" fill="none" xmlns="http://www.w3.org/2000/svg">
<path d="M52.6111 11.1429L42.7969 16.5123C37.3254 19.5058 34.5896 21.0028 31.6923 21.5896C29.128 22.1088 26.4831 22.1088 23.9188 21.5896C21.0216 21.0028 18.2858 19.5058 12.8142 16.5123L3 11.1429M11.8198 41H43.7914C46.8785 41 48.4223 41 49.6014 40.4083C50.6385 39.888 51.4819 39.0574 52.0103 38.036C52.6111 36.8748 52.6111 35.3546 52.6111 32.3143V11.6857C52.6111 8.64544 52.6111 7.12528 52.0103 5.96405C51.4819 4.94259 50.6385 4.11212 49.6014 3.59169C48.4223 3 46.8785 3 43.7914 3H11.8198C8.73256 3 7.18894 3 6.0098 3.59169C4.97257 4.11212 4.12929 4.94259 3.60082 5.96405C3 7.12528 3 8.64541 3 11.6857V32.3143C3 35.3546 3 36.8748 3.60082 38.036C4.12929 39.0574 4.97257 39.888 6.0098 40.4083C7.18894 41 8.73254 41 11.8198 41Z" stroke="#024093" stroke-width="4.22222" stroke-linecap="round" stroke-linejoin="round"/>
</svg>
