<svg width="53" height="53" viewBox="0 0 53 53" fill="none" xmlns="http://www.w3.org/2000/svg">
<path d="M36.4044 35.8054L37.6424 34.5325L34.6865 31.7904L33.4485 33.0632L36.4044 35.8054ZM41.7157 33.9966L46.9082 36.9158L48.9419 33.4649L43.7495 30.5457L41.7157 33.9966ZM47.9102 42.9679L44.0492 46.938L47.0052 49.6802L50.8662 45.71L47.9102 42.9679ZM41.7263 48.2101C37.8262 48.5862 27.6497 48.2653 16.6039 36.907L13.648 39.6492C25.6863 52.0281 37.1698 52.6506 42.1266 52.1728L41.7263 48.2101ZM16.6039 36.907C6.06915 26.0741 4.30206 16.9365 4.0818 12.9286L0.0108852 13.142C0.280633 18.0509 2.41464 28.0982 13.648 39.6492L16.6039 36.907ZM20.3419 19.2885L21.1214 18.4869L18.1655 15.7447L17.386 16.5463L20.3419 19.2885ZM21.7337 8.50715L18.3066 3.77279L14.9778 6.07155L18.405 10.8059L21.7337 8.50715ZM6.70685 2.75212L2.4409 7.13873L5.39678 9.88095L9.66273 5.49434L6.70685 2.75212ZM18.8639 17.9174C17.386 16.5463 17.3822 16.5502 17.3822 16.5502L17.3784 16.5541L17.3705 16.5624C17.3651 16.568 17.3596 16.5739 17.3539 16.58C17.3425 16.5923 17.3304 16.6055 17.3177 16.6198C17.2923 16.6484 17.2643 16.681 17.2345 16.7179C17.1747 16.7916 17.1071 16.8822 17.0362 16.9904C16.8941 17.2075 16.7398 17.4933 16.6093 17.8517C16.3437 18.5806 16.199 19.5458 16.3798 20.7511C16.7351 23.1193 18.3238 26.304 22.4749 30.5725L25.4308 27.8303C21.5508 23.8403 20.595 21.383 20.4136 20.1739C20.326 19.5905 20.415 19.2831 20.4501 19.1866C20.4699 19.1324 20.4828 19.1173 20.4702 19.1366C20.464 19.146 20.4518 19.1635 20.4313 19.1889C20.421 19.2016 20.4086 19.2163 20.3938 19.2329C20.3864 19.2412 20.3784 19.2499 20.3698 19.2592C20.3655 19.2639 20.361 19.2686 20.3563 19.2735L20.3492 19.2809L20.3456 19.2847C20.3456 19.2847 20.3419 19.2885 18.8639 17.9174ZM22.4749 30.5725C26.6139 34.8285 29.7397 36.5017 32.1246 36.88C33.3485 37.074 34.3391 36.919 35.0893 36.6302C35.4559 36.4889 35.7459 36.323 35.9636 36.1723C36.0723 36.0969 36.1628 36.0255 36.2357 35.9631C36.2724 35.9318 36.3044 35.9025 36.3324 35.876C36.3466 35.863 36.3596 35.8503 36.3716 35.8386C36.3775 35.8327 36.3833 35.8269 36.3887 35.8213L36.3968 35.8134L36.4006 35.8094C36.4006 35.8094 36.4044 35.8054 34.9265 34.4343C33.4485 33.0632 33.4523 33.0595 33.4523 33.0595L33.4558 33.0555L33.4632 33.0484C33.4681 33.0436 33.4727 33.0388 33.477 33.0343C33.4863 33.0256 33.495 33.0171 33.5031 33.0094C33.5194 32.994 33.5344 32.9807 33.5474 32.9695C33.5733 32.9472 33.5926 32.9329 33.6051 32.9244C33.6306 32.9066 33.6279 32.9127 33.5934 32.926C33.5409 32.9462 33.2939 33.0314 32.7783 32.9496C31.6841 32.776 29.3233 31.8329 25.4308 27.8303L22.4749 30.5725ZM18.3066 3.77279C15.5518 -0.0327172 10.0394 -0.674746 6.70685 2.75212L9.66273 5.49434C11.0837 4.03315 13.5853 4.14793 14.9778 6.07155L18.3066 3.77279ZM4.0818 12.9286C4.02356 11.8687 4.49611 10.8071 5.39678 9.88095L2.4409 7.13873C0.984531 8.63629 -0.122399 10.7166 0.0108852 13.142L4.0818 12.9286ZM44.0492 46.938C43.291 47.7179 42.4976 48.1358 41.7263 48.2101L42.1266 52.1728C44.1571 51.9769 45.8004 50.9193 47.0052 49.6802L44.0492 46.938ZM21.1214 18.4869C23.7512 15.7828 23.9374 11.551 21.7337 8.50715L18.405 10.8059C19.5523 12.3908 19.3764 14.4995 18.1655 15.7447L21.1214 18.4869ZM46.9082 36.9158C49.139 38.1701 49.5757 41.2554 47.9102 42.9679L50.8662 45.71C54.4127 42.063 53.3799 35.9599 48.9419 33.4649L46.9082 36.9158ZM37.6424 34.5325C38.6899 33.4553 40.3222 33.2132 41.7157 33.9966L43.7495 30.5457C40.7639 28.8672 37.0611 29.3485 34.6865 31.7904L37.6424 34.5325Z" fill="#024093"/>
</svg>
