<svg width="295" height="182" viewBox="0 0 295 182" fill="none" xmlns="http://www.w3.org/2000/svg">
<mask id="mask0_847_507" style="mask-type:luminance" maskUnits="userSpaceOnUse" x="46" y="11" width="201" height="126">
<path d="M46.8853 11.4688H246.885V136.469H46.8853V11.4688Z" fill="white"/>
</mask>
<g mask="url(#mask0_847_507)">
<path d="M216.646 44.255L215.734 27.2134L237.989 44.255H216.646ZM215.781 48.7446H238.729L188.5 93.5884L215.781 48.7446ZM77.9998 48.7446L105.281 93.578L55.0571 48.7446H77.9998ZM77.1405 44.255H55.7915L78.0467 27.2134L77.1405 44.255ZM118.807 24.38L101.64 15.953H136.818L118.807 24.38ZM174.969 24.38L156.969 15.953H192.14L174.969 24.38ZM184.932 48.7446H209.302L164.161 95.9738L184.932 48.7446ZM146.896 59.9113L154.729 106.458L146.896 127.38L139.057 106.463L146.896 59.9113ZM108.844 48.7446L129.63 95.979L84.479 48.7446H108.844ZM108.838 44.255H88.7967L114.318 31.5832L108.838 44.255ZM139.776 44.255H113.693L119.75 30.2603L139.776 44.255ZM146.896 43.7707L123.245 27.2498L146.896 16.1821L170.542 27.2498L146.896 43.7707ZM174.036 30.2603L180.088 44.255H154.005L174.036 30.2603ZM135.807 98.9686L113.713 48.7446H144.26L135.807 98.9686ZM149.526 48.7446H180.068L157.979 98.9738L149.526 48.7446ZM184.948 44.255L179.458 31.5832L204.984 44.255H184.948ZM211.094 23.6561L212.114 42.7967L180.052 26.8748L201.531 16.328L211.094 23.6561ZM92.2498 16.328L113.729 26.8748L81.6717 42.7967L82.6873 23.6561L92.2498 16.328ZM116.703 103.776L91.8384 62.9061L134.838 107.901L141.635 126.036L116.703 103.776ZM152.146 126.042L158.932 107.911L201.948 62.9061L177.073 103.786L152.146 126.042ZM246.62 47.4113C246.625 47.4009 246.635 47.3905 246.64 47.3748C246.755 47.1092 246.823 46.8123 246.823 46.4998C246.823 46.4842 246.812 46.4686 246.812 46.453C246.812 46.4425 246.818 46.4269 246.818 46.4165C246.818 46.328 246.771 46.255 246.755 46.1769C246.719 45.953 246.682 45.7394 246.588 45.5467C246.547 45.4425 246.474 45.3644 246.411 45.2759C246.297 45.104 246.182 44.9478 246.026 44.8175C245.989 44.7863 245.979 44.7394 245.943 44.7134L203.13 11.9217C202.963 11.7967 202.781 11.7082 202.594 11.63C202.557 11.6196 202.536 11.5936 202.505 11.5832C202.276 11.505 202.026 11.4634 201.792 11.4634H91.9946C91.7498 11.4634 91.505 11.505 91.2759 11.5832C91.2498 11.5936 91.2342 11.6144 91.2134 11.6248C91.0103 11.6978 90.8175 11.7915 90.6509 11.9217L47.8384 44.7134C47.8019 44.7394 47.7863 44.7863 47.755 44.8175C47.5988 44.9478 47.4894 45.104 47.3748 45.2707C47.3123 45.3644 47.2394 45.4425 47.1925 45.5467C47.104 45.7342 47.0623 45.9478 47.0311 46.1613C47.0155 46.2498 46.9686 46.3228 46.9634 46.4165C46.9634 46.4321 46.9738 46.4425 46.9738 46.4582C46.9738 46.4686 46.9634 46.4842 46.9634 46.4998C46.9634 46.8123 47.0259 47.1092 47.1405 47.3748C47.1509 47.3957 47.1665 47.4061 47.1769 47.4269C47.2967 47.6925 47.4634 47.9321 47.6769 48.1248C47.6925 48.1405 47.6978 48.1665 47.7134 48.1821L113.453 106.87C113.458 106.875 113.463 106.875 113.469 106.88L145.417 135.406C145.453 135.437 145.489 135.443 145.521 135.469C145.661 135.583 145.812 135.672 145.979 135.745C146 135.755 146.015 135.771 146.036 135.781C146.062 135.792 146.083 135.818 146.104 135.828C146.109 135.828 146.109 135.828 146.109 135.828C146.135 135.833 146.151 135.833 146.167 135.838C146.401 135.922 146.646 135.969 146.896 135.969C147.146 135.969 147.385 135.922 147.614 135.838C147.64 135.833 147.656 135.833 147.672 135.828C147.677 135.828 147.677 135.828 147.677 135.828C147.708 135.818 147.724 135.792 147.75 135.781C147.771 135.771 147.786 135.755 147.812 135.739C147.974 135.667 148.125 135.583 148.265 135.469C148.297 135.443 148.338 135.437 148.37 135.406L246.068 48.1821C246.088 48.1665 246.094 48.1405 246.109 48.1248C246.323 47.9269 246.495 47.6873 246.62 47.4113Z" fill="white"/>
</g>
<mask id="mask1_847_507" style="mask-type:luminance" maskUnits="userSpaceOnUse" x="23" y="73" width="222" height="51">
<path d="M23.5522 73.1509H244.886V123.818H23.5522V73.1509Z" fill="white"/>
</mask>
<g mask="url(#mask1_847_507)">
<mask id="mask2_847_507" style="mask-type:luminance" maskUnits="userSpaceOnUse" x="20" y="72" width="236" height="52">
<path d="M20.4795 90.8177L252.756 72.4531L255.354 105.354L23.0785 123.714L20.4795 90.8177Z" fill="white"/>
</mask>
<g mask="url(#mask2_847_507)">
<mask id="mask3_847_507" style="mask-type:luminance" maskUnits="userSpaceOnUse" x="20" y="72" width="236" height="52">
<path d="M20.4795 90.8177L252.756 72.4531L255.354 105.354L23.0785 123.714L20.4795 90.8177Z" fill="white"/>
</mask>
<g mask="url(#mask3_847_507)">
<path d="M25.6412 123.417C38.8183 115.229 54.7193 112.328 69.9224 110.75C86.2922 109.031 102.73 108.813 119.157 109.021C135.777 109.255 152.376 109.875 169.011 109.734C177.277 109.646 185.573 109.318 193.85 108.708C201.61 108.146 209.464 107.568 217.146 106.021C224.876 104.469 232.506 101.656 238.063 95.8125C242.922 90.6771 246.141 83.1823 244.126 76.1459C243.282 73.2031 238.667 74.2761 238.902 77.2656C239.454 83.6146 237.402 89.1875 232.813 93.5938C227.657 98.5625 220.396 100.734 213.594 102.12C198.131 105.172 182.193 105.823 166.454 105.984C134.501 106.255 102.412 103.573 70.5839 107.219C54.3599 109.016 38.0631 112.188 24.5839 121.901C23.5995 122.594 24.6099 124.063 25.6412 123.417Z" fill="white"/>
</g>
</g>
</g>
<mask id="mask4_847_507" style="mask-type:luminance" maskUnits="userSpaceOnUse" x="20" y="72" width="236" height="52">
<path d="M20.479 90.8177L252.755 72.4531L255.354 105.354L23.078 123.714L20.479 90.8177Z" fill="white"/>
</mask>
<g mask="url(#mask4_847_507)">
<mask id="mask5_847_507" style="mask-type:luminance" maskUnits="userSpaceOnUse" x="20" y="72" width="236" height="52">
<path d="M20.479 90.8177L252.755 72.4531L255.354 105.354L23.078 123.714L20.479 90.8177Z" fill="white"/>
</mask>
<g mask="url(#mask5_847_507)">
<path d="M30.9893 112.557C44.5101 106.364 58.807 104.01 73.5205 102.75C74.3174 102.687 74.4893 101.312 73.5935 101.292C58.6976 100.255 43.6508 104.974 30.6143 111.974C30.3435 112.135 30.6247 112.724 30.9893 112.557Z" fill="white"/>
</g>
</g>
<mask id="mask6_847_507" style="mask-type:luminance" maskUnits="userSpaceOnUse" x="20" y="72" width="236" height="52">
<path d="M20.479 90.8177L252.755 72.4531L255.354 105.354L23.078 123.714L20.479 90.8177Z" fill="white"/>
</mask>
<g mask="url(#mask6_847_507)">
<mask id="mask7_847_507" style="mask-type:luminance" maskUnits="userSpaceOnUse" x="20" y="72" width="236" height="52">
<path d="M20.479 90.8177L252.755 72.4531L255.354 105.354L23.078 123.714L20.479 90.8177Z" fill="white"/>
</mask>
<g mask="url(#mask7_847_507)">
<path d="M233.27 104.797C238.588 103.62 243.338 100.661 246.77 96.4844C248.531 94.3698 249.989 92 250.911 89.4323C251.692 87.3958 253.145 83.7552 251.583 81.8594C250.854 80.974 249.724 80.9219 248.942 81.7396C247.458 83.2187 247.937 86.2865 247.437 88.2969C246.869 90.599 245.958 92.7865 244.755 94.8125C242.047 99.2083 237.942 102.594 233.093 104.339C232.77 104.411 232.948 104.865 233.27 104.797Z" fill="white"/>
</g>
</g>
<mask id="mask8_847_507" style="mask-type:luminance" maskUnits="userSpaceOnUse" x="15" y="51" width="49" height="52">
<path d="M15.8281 51.875H63.3177V102.875H15.8281V51.875Z" fill="white"/>
</mask>
<g mask="url(#mask8_847_507)">
<path fill-rule="evenodd" clip-rule="evenodd" d="M-53.2655 227.864H-54.8436C-54.8436 133.667 -70.1092 126.823 -155.885 126.823V125.245C-70.1092 125.245 -54.8436 118.401 -54.8436 24.2238H-53.2655C-53.2655 118.401 -37.9998 125.245 47.7554 125.245V126.823C-37.9998 126.823 -53.2655 133.667 -53.2655 227.864ZM40.7241 99.6509H40.3752C40.3752 78.5624 36.9429 77.0207 17.745 77.0207V76.6717C36.9429 76.6717 40.3752 75.1301 40.3752 54.0415H40.7241C40.7241 75.1301 44.1356 76.6717 63.3335 76.6717V77.0207C44.1356 77.0207 40.7241 78.5624 40.7241 99.6509ZM-3.03108 47.2498H-3.72379C-3.72379 5.38526 -10.5207 2.35401 -48.6248 2.35401V1.64047C-10.5207 1.64047 -3.72379 -1.39078 -3.72379 -43.2397H-3.03108C-3.03108 -1.39078 3.76058 1.64047 41.8648 1.64047V2.35401C3.76058 2.35401 -3.03108 5.38526 -3.03108 47.2498Z" fill="white"/>
</g>
<mask id="mask9_847_507" style="mask-type:luminance" maskUnits="userSpaceOnUse" x="231" y="0" width="36" height="37">
<path d="M231.688 0H266.094V37H231.688V0Z" fill="white"/>
</mask>
<g mask="url(#mask9_847_507)">
<path fill-rule="evenodd" clip-rule="evenodd" d="M181.495 127.844H180.349C180.349 59.4116 169.255 54.4429 106.943 54.4429V53.297C169.255 53.297 180.349 48.3231 180.349 -20.0988H181.495C181.495 48.3231 192.583 53.297 254.886 53.297V54.4429C192.583 54.4429 181.495 59.4116 181.495 127.844ZM249.776 34.7033H249.526C249.526 19.3804 247.031 18.2606 233.083 18.2606V18.0106C247.031 18.0106 249.526 16.8856 249.526 1.56787H249.776C249.776 16.8856 252.255 18.0106 266.203 18.0106V18.2606C252.255 18.2606 249.776 19.3804 249.776 34.7033ZM217.99 -3.36963H217.485C217.485 -33.7811 212.552 -35.9842 184.87 -35.9842V-36.4998C212.552 -36.4998 217.485 -38.703 217.485 -69.104H217.99C217.99 -38.703 222.922 -36.4998 250.604 -36.4998V-35.9842C222.922 -35.9842 217.99 -33.7811 217.99 -3.36963Z" fill="white"/>
</g>
<path d="M12.0417 173.43L16.4375 156.555H23.9583V181.368H19.3125V161.826L14.4167 181.368H9.60417L4.64583 161.847V181.368H0V156.555H7.5L12.0417 173.43Z" fill="white"/>
<path d="M44.9162 156.138C47.5256 156.138 49.7339 156.695 51.5412 157.805C53.3433 158.904 54.6974 160.425 55.6037 162.367C56.5047 164.315 56.9578 166.524 56.9578 168.992C56.9578 171.633 56.4787 173.909 55.5203 175.826C54.562 177.742 53.1766 179.216 51.3745 180.242C49.5672 181.274 47.4422 181.784 44.9995 181.784C42.4266 181.784 40.2339 181.258 38.4162 180.201C36.6089 179.133 35.2391 177.649 34.312 175.742C33.3953 173.826 32.937 171.612 32.937 169.097C32.937 166.487 33.3953 164.211 34.312 162.263C35.2391 160.305 36.6037 158.8 38.3953 157.742C40.187 156.675 42.3589 156.138 44.9162 156.138ZM38.0828 168.951C38.0828 170.899 38.3953 172.508 39.0203 173.784C39.6453 175.05 40.4787 175.987 41.5203 176.597C42.562 177.195 43.7078 177.492 44.9578 177.492C46.1089 177.492 47.1922 177.232 48.2078 176.701C49.2339 176.159 50.0881 175.253 50.7703 173.972C51.4474 172.68 51.7912 170.987 51.7912 168.888C51.7912 166.419 51.2391 164.388 50.1453 162.805C49.062 161.222 47.3172 160.43 44.9162 160.43C42.5412 160.43 40.8016 161.232 39.7078 162.826C38.6245 164.425 38.0828 166.466 38.0828 168.951Z" fill="white"/>
<path d="M83.8433 160.743H76.4891V181.368H71.5099V160.743H64.1558V156.555H83.8433V160.743Z" fill="white"/>
<path d="M96.9824 181.368H91.9824V156.555H96.9824V181.368Z" fill="white"/>
<path d="M122.31 157.097C123.445 157.487 124.414 158.201 125.206 159.243C126.008 160.284 126.414 161.467 126.414 162.784C126.414 164.133 126.039 165.279 125.289 166.222C124.55 167.17 123.758 167.816 122.914 168.159C124.565 168.649 125.758 169.446 126.498 170.555C127.248 171.67 127.623 172.868 127.623 174.159C127.623 175.592 127.206 176.951 126.373 178.243C125.539 179.534 124.419 180.404 123.018 180.847C122.393 181.055 121.602 181.196 120.643 181.264C119.695 181.336 118.544 181.368 117.185 181.368H106.81V156.555H117.185C118.393 156.555 119.393 156.592 120.185 156.659C120.977 156.732 121.685 156.878 122.31 157.097ZM121.518 163.576C121.518 162.941 121.357 162.404 121.039 161.972C120.732 161.545 120.336 161.222 119.852 161.014C119.419 160.836 118.581 160.743 117.331 160.743H111.81V166.43H117.435C120.154 166.43 121.518 165.482 121.518 163.576ZM119.81 177.034C120.57 176.925 121.206 176.612 121.706 176.097C122.206 175.571 122.456 174.878 122.456 174.014C122.456 173.045 122.211 172.316 121.727 171.826C121.237 171.326 120.586 171.003 119.768 170.847C118.945 170.696 117.878 170.618 116.56 170.618H111.81V177.18H117.018C118.211 177.18 119.143 177.133 119.81 177.034Z" fill="white"/>
<path d="M159.255 181.368H153.796L151.63 175.743H141.713L139.671 181.368H134.338L144.005 156.555H149.317L159.255 181.368ZM143.255 171.555H150.046L146.609 162.326L143.255 171.555Z" fill="white"/>
<path d="M193.026 156.138C195.86 156.138 198.183 156.737 200.006 157.93C201.839 159.112 203.032 160.94 203.589 163.409L198.589 164.347C198.224 163.055 197.537 162.086 196.526 161.43C195.526 160.763 194.365 160.43 193.047 160.43C191.714 160.43 190.532 160.69 189.506 161.201C188.49 161.701 187.683 162.44 187.089 163.409C186.282 164.701 185.881 166.461 185.881 168.68C185.881 171.294 186.469 173.419 187.651 175.055C188.828 176.68 190.61 177.492 192.985 177.492C193.995 177.492 195.011 177.305 196.026 176.93C197.052 176.544 197.99 176.024 198.839 175.367V172.242H193.131V168.055H203.901V177.93C202.651 179.086 201.047 180.013 199.089 180.722C197.141 181.43 195.214 181.784 193.297 181.784C190.516 181.784 188.183 181.211 186.297 180.055C184.422 178.904 183.016 177.347 182.089 175.388C181.172 173.43 180.714 171.263 180.714 168.888C180.714 166.586 181.162 164.466 182.068 162.534C182.969 160.607 184.344 159.055 186.193 157.888C188.037 156.722 190.318 156.138 193.026 156.138Z" fill="white"/>
<path d="M231.974 160.743H218.557V166.243H231.036V170.451H218.557V177.18H232.432V181.368H213.557V156.555H231.974V160.743Z" fill="white"/>
<path d="M253.679 173.43L258.075 156.555H265.596V181.368H260.95V161.826L256.054 181.368H251.241L246.283 161.847V181.368H241.637V156.555H249.137L253.679 173.43Z" fill="white"/>
<path d="M284.262 156.138C287.012 156.138 289.262 156.753 291.012 157.972C292.762 159.195 293.678 161.091 293.762 163.659L288.741 163.867C288.574 162.701 288.147 161.815 287.47 161.201C286.788 160.576 285.699 160.263 284.199 160.263C283.158 160.263 282.199 160.451 281.324 160.826C280.449 161.19 280.012 161.82 280.012 162.722C280.012 163.487 280.397 164.097 281.178 164.555C281.97 165.003 283.371 165.451 285.387 165.909C287.262 166.341 288.803 166.805 290.012 167.305C291.22 167.805 292.262 168.607 293.137 169.701C294.022 170.8 294.47 172.284 294.47 174.159C294.47 175.107 294.246 176.112 293.803 177.18C293.355 178.237 292.642 179.149 291.658 179.909C290.918 180.508 289.939 180.972 288.72 181.305C287.512 181.623 286.105 181.784 284.512 181.784C281.413 181.784 279.033 181.091 277.366 179.701C275.71 178.3 274.699 176.159 274.324 173.284L279.178 172.847C279.704 176.013 281.501 177.597 284.574 177.597C286.199 177.597 287.418 177.258 288.241 176.576C289.059 175.883 289.47 175.076 289.47 174.159C289.47 173.492 289.267 172.966 288.866 172.576C288.46 172.175 287.824 171.826 286.949 171.534C286.085 171.242 284.73 170.883 282.887 170.451C280.579 169.94 278.725 169.086 277.324 167.888C275.918 166.68 275.22 165.07 275.22 163.055C275.22 161.972 275.496 160.909 276.053 159.867C276.605 158.815 277.559 157.93 278.908 157.222C280.267 156.503 282.053 156.138 284.262 156.138Z" fill="white"/>
</svg>
